<svg width="94" height="120" viewBox="0 0 94 120" fill="none" xmlns="http://www.w3.org/2000/svg">
<path d="M82.9209 77.2019C74.6656 77.3534 65.2966 78.2444 56.6381 79.3315C57.6071 75.8498 58.5716 72.4127 58.5716 72.4127C58.5716 72.4127 59.5629 74.5445 62.3584 74.3284C66.3279 74.021 71.1595 70.1562 73.4984 63.0748C75.9843 55.5524 75.7616 47.0098 70.6895 46.2925C66.5908 45.7134 64.635 49.3354 64.3521 50.0571C64.3521 50.0571 65.2231 46.767 62.6191 47.3417C60.1242 47.8919 59.6676 49.0035 59.0505 50.9904C58.9414 51.3402 56.8408 59.1566 54.64 67.394C54.6066 67.4475 54.5799 67.5099 54.5598 67.5789C54.0163 69.4412 52.9404 70.0649 52.163 70.1139C49.6481 70.2765 55.0543 53.6835 55.4642 52.425C56.0055 50.7654 56.3285 49.5069 54.4952 48.8141C53.2589 48.3463 51.5638 48.5156 51.067 49.8432C50.8576 50.4001 50.7062 50.81 50.7062 50.81C50.7062 50.81 49.2939 48.7116 46.1709 48.9968C43.0456 49.2819 39.1007 53.0843 36.49 59.7558C33.8793 66.4273 32.7455 75.9968 38.9381 76.9502C42.0811 77.4336 44.7185 75.636 46.0996 72.6756C46.0996 72.6756 45.859 74.6581 47.9284 75.6293C48.7415 76.0124 50.7641 75.8632 52.6686 74.7873C52.1674 76.6673 51.6952 78.4493 51.2742 80.0376C37.9045 81.8864 27.3816 83.9514 27.3816 83.9514C27.3838 83.9425 34.7102 59.1677 36.3608 53.7147C37.7419 49.1505 35.1379 50.144 33.2133 50.7031C31.1617 51.2978 30.1905 53.0264 29.1636 56.165C24.6751 69.8733 21.1422 74.1413 18.5805 73.2213C16.2305 72.3771 23.6215 57.8201 21.8483 55.8977C20.3113 54.2315 17.1438 54.3206 16.5401 55.303C15.9365 56.2853 16.8342 57.183 16.4488 58.573C16.0634 59.963 13.103 67.4876 12.7912 69.1739C12.4793 70.8579 9.91095 80.198 16.7072 79.7948C20.7234 79.5564 23.4745 76.5181 23.7663 75.6738C22.5122 79.3025 20.719 85.1587 20.719 85.1587C20.719 85.1587 12.4971 87.2147 5.94369 94.0733C0.740153 99.5175 -2.93975 111.245 4.83215 113.114C16.9121 116.019 22.6235 97.5795 25.5528 90.6451C35.3473 88.4644 42.8162 87.0165 49.7238 85.9383C49.6214 86.3415 49.5523 86.6155 49.5278 86.7291C48.8996 89.616 49.04 90.7721 51.2942 90.4937C53.7245 90.193 54.0297 88.9455 54.8249 85.9272C54.8784 85.72 54.9474 85.4639 55.0276 85.1676C63.2138 84.0628 71.2508 83.37 82.3105 82.4478C85.7476 82.1604 85.7098 81.5857 86.0461 79.5342C86.4248 77.2064 83.7362 77.1886 82.9209 77.2019ZM61.835 61.2906C63.4878 55.8888 65.007 53.7259 66.4349 53.1155C69.8408 51.6565 70.4867 55.9311 67.8582 62.42C64.8154 69.929 61.2625 69.7575 59.9015 68.2762C59.8992 68.2762 60.0886 66.9931 61.835 61.2906ZM46.6253 64.5495C45.164 68.0757 43.7963 70.5572 41.9141 70.5705C39.2165 70.5906 39.2855 66.5342 41.2057 61.4309C42.8207 57.1407 45.7655 54.4387 47.3559 54.1313C48.9442 53.8261 50.793 54.4921 46.6253 64.5495ZM10.9334 105.579C4.51138 111.31 6.13081 103.46 8.51873 100.07C13.0518 93.6323 18.6496 92.004 18.6496 92.004C15.805 100.324 12.2499 104.402 10.9334 105.579Z" fill="#742384"/>
<path d="M91.461 56.4458C93.8868 53.6369 94.9939 47.6514 90.9242 45.4484C86.0013 42.7843 79.5726 46.8518 76.9196 55.6171C74.5606 63.4113 73.6785 72.9964 81.6821 72.6422C85.6248 72.4685 89.0263 69.6306 90.2581 67.5234C90.8551 66.5009 91.0935 64.8904 90.9888 64.1754C90.697 62.1683 89.4696 61.8765 87.3868 64.5117C86.8723 65.0931 82.7647 68.7463 80.7554 66.5766C79.3031 65.0085 80.5238 61.93 80.5817 61.9278C83.2102 61.7362 87.8101 60.6737 91.461 56.4458ZM85.5714 49.6406C87.7811 47.5757 89.895 50.0461 87.34 53.6012C84.7606 57.1876 81.74 57.0962 81.7155 57.2098C82.0251 55.8065 83.1612 51.8949 85.5714 49.6406Z" fill="#742384"/>
<path d="M47.9126 25.494C47.4315 25.1843 46.7098 25.0306 45.7519 25.0306H42.8873V29.0001H45.8455C47.7055 29.0001 48.6366 28.3296 48.6366 26.9887C48.6366 26.3003 48.396 25.8036 47.9126 25.494Z" fill="#10CBB4"/>
<path d="M49.4434 7.01867C40.7872 7.4174 33.7192 14.3696 33.189 23.0191C32.8304 28.8753 35.4232 34.139 39.6177 37.4759C40.0498 37.8189 40.3016 38.3379 40.3016 38.8904V42.6616C40.3016 42.9512 40.4642 43.2185 40.7203 43.3521L40.825 43.4078C41.0723 43.537 41.3686 43.5147 41.5935 43.3521L44.8302 41.0199C45.2534 40.7147 45.788 40.6078 46.2959 40.7281C47.5656 41.031 48.8887 41.1914 50.2498 41.1914C59.6923 41.1914 67.3462 33.5376 67.3462 24.095C67.3462 14.3874 59.2535 6.56648 49.4434 7.01867ZM50.8445 29.2451C50.4547 29.8532 49.929 30.3032 49.2674 30.595C48.8531 30.7687 48.3764 30.889 47.8396 30.9603C47.3027 31.0316 46.6746 31.0672 45.9573 31.0672H41.8029C41.2037 31.0672 40.776 30.9336 40.5176 30.664C40.2615 30.3945 40.1323 29.9668 40.1323 29.3787V19.1588C40.1323 18.5596 40.2637 18.1274 40.5265 17.8646C40.7894 17.6017 41.2149 17.4703 41.8007 17.4703H46.2045C46.8528 17.4703 47.4163 17.5104 47.893 17.5906C48.3697 17.6708 48.7952 17.8267 49.1716 18.0539C49.4924 18.2455 49.7775 18.4883 50.0248 18.7823C50.272 19.0764 50.4614 19.4016 50.5906 19.7558C50.7198 20.1122 50.7844 20.4864 50.7844 20.8829C50.7844 22.2439 50.105 23.2374 48.7439 23.87C50.5304 24.4381 51.4237 25.5451 51.4237 27.1891C51.4281 27.9509 51.2343 28.6347 50.8445 29.2451ZM60.5165 29.7819C60.1757 30.2787 59.6745 30.6574 59.0085 30.9135C58.3447 31.1697 57.5361 31.2989 56.5827 31.2989C55.6738 31.2989 54.8942 31.1608 54.246 30.8823C53.5978 30.6039 53.1166 30.2564 52.8092 29.8398C52.4996 29.4233 52.3459 29.0045 52.3459 28.5835C52.3459 28.3051 52.4439 28.0667 52.6421 27.8685C52.8404 27.6702 53.0899 27.5722 53.3928 27.5722C53.6579 27.5722 53.8628 27.6368 54.0054 27.766C54.148 27.8952 54.2838 28.0779 54.413 28.314C54.6737 28.7662 54.9833 29.1025 55.3442 29.3253C55.705 29.548 56.1995 29.6594 56.8232 29.6594C57.3311 29.6594 57.7454 29.5458 58.0707 29.3208C58.3959 29.0958 58.5563 28.8374 58.5563 28.5456C58.5563 28.1001 58.387 27.7749 58.0506 27.5722C57.7143 27.3673 57.1596 27.1735 56.3866 26.9886C55.5157 26.7725 54.8051 26.5453 54.2593 26.307C53.7114 26.0686 53.2748 25.7545 52.9473 25.3647C52.6199 24.9749 52.455 24.496 52.455 23.9279C52.455 23.4201 52.6065 22.9411 52.9094 22.4912C53.2124 22.039 53.6601 21.6804 54.2504 21.4108C54.8407 21.1413 55.5535 21.0076 56.3866 21.0076C57.0415 21.0076 57.6318 21.0767 58.1531 21.2126C58.6766 21.3485 59.1109 21.5311 59.4607 21.7605C59.8104 21.99 60.0755 22.2417 60.2581 22.5201C60.4408 22.7986 60.5321 23.0703 60.5321 23.3354C60.5321 23.625 60.4341 23.8633 60.2403 24.0505C60.0465 24.2353 59.7681 24.3289 59.4094 24.3289C59.1488 24.3289 58.9283 24.2554 58.7456 24.1061C58.563 23.9569 58.3536 23.7341 58.1197 23.4379C57.9281 23.1906 57.7031 22.9924 57.4425 22.8454C57.1819 22.6961 56.8299 22.6226 56.3844 22.6226C55.9278 22.6226 55.5469 22.7206 55.2439 22.9144C54.941 23.1082 54.7895 23.351 54.7895 23.6428C54.7895 23.9079 54.9009 24.1262 55.1236 24.2977C55.3464 24.467 55.6449 24.6073 56.0236 24.7187C56.4 24.8301 56.919 24.966 57.5806 25.1264C58.3647 25.3179 59.0062 25.5474 59.5052 25.8124C60.0019 26.0775 60.3806 26.3916 60.6368 26.7547C60.893 27.1156 61.0222 27.5299 61.0222 27.9932C61.0266 28.686 60.8573 29.2852 60.5165 29.7819Z" fill="#10CBB4"/>
<path d="M46.9994 22.8609C47.3736 22.7317 47.6587 22.4844 47.857 22.1191C48.0107 21.8585 48.0886 21.5689 48.0886 21.2482C48.0886 20.5621 47.8436 20.1054 47.3558 19.8805C46.8679 19.6555 46.1217 19.5419 45.1215 19.5419H42.8873V23.0569H45.4089C46.095 23.0547 46.6251 22.9901 46.9994 22.8609Z" fill="#10CBB4"/>
</svg>
